<?xml version="1.0" encoding="UTF-8" standalone="no"?>
<!-- Created with Inkscape (http://www.inkscape.org/) -->

<svg
   xmlns:dc="http://purl.org/dc/elements/1.1/"
   xmlns:cc="http://creativecommons.org/ns#"
   xmlns:rdf="http://www.w3.org/1999/02/22-rdf-syntax-ns#"
   xmlns:svg="http://www.w3.org/2000/svg"
   xmlns="http://www.w3.org/2000/svg"
   xmlns:xlink="http://www.w3.org/1999/xlink"
   xmlns:sodipodi="http://sodipodi.sourceforge.net/DTD/sodipodi-0.dtd"
   xmlns:inkscape="http://www.inkscape.org/namespaces/inkscape"
   width="210mm"
   height="297mm"
   viewBox="0 0 210 297"
   version="1.1"
   id="svg8"
   inkscape:version="0.92.4 (5da689c313, 2019-01-14)"
   sodipodi:docname="glow.svg">
  <defs
     id="defs2">
    <linearGradient
       id="linearGradient1374"
       inkscape:collect="always">
      <stop
         id="stop1378"
         offset="0"
         style="stop-color:#f5f3f6;stop-opacity:1" />
      <stop
         id="stop1380"
         offset="1"
         style="stop-color:#ffffff;stop-opacity:0.05555556" />
    </linearGradient>
    <radialGradient
       inkscape:collect="always"
       xlink:href="#linearGradient1374"
       id="radialGradient1376"
       cx="71.634666"
       cy="77.4673"
       fx="71.634666"
       fy="77.4673"
       r="7.0308531"
       gradientUnits="userSpaceOnUse" />
    <filter
       style="color-interpolation-filters:sRGB;"
       inkscape:label="Blur"
       id="filter1477">
      <feGaussianBlur
         stdDeviation="0.3 0.3"
         result="fbSourceGraphic"
         id="feGaussianBlur1475" />
      <feColorMatrix
         result="fbSourceGraphicAlpha"
         in="fbSourceGraphic"
         values="0 0 0 -1 0 0 0 0 -1 0 0 0 0 -1 0 0 0 0 1 0"
         id="feColorMatrix1479" />
      <feGaussianBlur
         id="feGaussianBlur1481"
         stdDeviation="0.3 0.3"
         result="blur"
         in="fbSourceGraphic" />
    </filter>
  </defs>
  <sodipodi:namedview
     id="base"
     pagecolor="#000000"
     bordercolor="#666666"
     borderopacity="1.0"
     inkscape:pageopacity="0"
     inkscape:pageshadow="2"
     inkscape:zoom="2.9111337"
     inkscape:cx="439.43145"
     inkscape:cy="1001.3067"
     inkscape:document-units="mm"
     inkscape:current-layer="layer1"
     showgrid="false"
     inkscape:showpageshadow="true"
     showborder="false"
     inkscape:window-width="1920"
     inkscape:window-height="1027"
     inkscape:window-x="-8"
     inkscape:window-y="-5"
     inkscape:window-maximized="1" />
  <metadata
     id="metadata5">
    <rdf:RDF>
      <cc:Work
         rdf:about="">
        <dc:format>image/svg+xml</dc:format>
        <dc:type
           rdf:resource="http://purl.org/dc/dcmitype/StillImage" />
        <dc:title />
      </cc:Work>
    </rdf:RDF>
  </metadata>
  <g
     inkscape:label="Layer 1"
     inkscape:groupmode="layer"
     id="layer1">
    <path
       sodipodi:type="star"
       style="opacity:1;vector-effect:none;fill:url(#radialGradient1376);fill-opacity:1;stroke:none;stroke-width:0.26499999;stroke-linecap:butt;stroke-linejoin:miter;stroke-miterlimit:4;stroke-dasharray:none;stroke-dashoffset:0;stroke-opacity:1;filter:url(#filter1477)"
       id="path1368"
       sodipodi:sides="16"
       sodipodi:cx="71.634666"
       sodipodi:cy="77.4673"
       sodipodi:r1="2.1875777"
       sodipodi:r2="7.0567026"
       sodipodi:arg1="0.89605538"
       sodipodi:arg2="1.0924049"
       inkscape:flatsided="false"
       inkscape:rounded="0.04"
       inkscape:randomized="0"
       d="m 73.001235,79.175512 c -0.153977,0.123181 2.057047,4.465506 1.881997,4.556281 -0.17505,0.09078 -2.450329,-4.218228 -2.639725,-4.163348 -0.189395,0.05488 0.191588,4.912788 -0.0049,4.929665 -0.196463,0.01688 -0.649562,-4.834836 -0.845543,-4.856612 -0.195981,-0.02178 -1.703039,4.612142 -1.891005,4.552551 -0.187967,-0.05959 1.250094,-4.715383 1.077364,-4.810499 -0.172729,-0.09512 -3.338392,3.609338 -3.489246,3.482351 -0.150854,-0.126986 2.959435,-3.878055 2.836253,-4.032032 -0.123181,-0.153977 -4.465506,2.057047 -4.556282,1.881997 -0.09077,-0.17505 4.218229,-2.450329 4.163349,-2.639725 -0.05488,-0.189395 -4.912788,0.191588 -4.929665,-0.0049 -0.01688,-0.196463 4.834836,-0.649562 4.856612,-0.845543 0.02177,-0.195981 -4.612142,-1.703039 -4.552551,-1.891005 0.05959,-0.187967 4.715383,1.250094 4.810499,1.077364 0.09512,-0.172729 -3.609338,-3.338392 -3.482352,-3.489246 0.126987,-0.150854 3.878056,2.959435 4.032032,2.836253 0.153977,-0.123181 -2.057046,-4.465506 -1.881996,-4.556282 0.17505,-0.09078 2.450329,4.218229 2.639724,4.163349 0.189396,-0.05488 -0.191587,-4.912788 0.0049,-4.929665 0.196463,-0.01688 0.649562,4.834836 0.845543,4.856611 0.195981,0.02178 1.703038,-4.612141 1.891005,-4.55255 0.187967,0.05959 -1.250094,4.715383 -1.077364,4.810499 0.172729,0.09512 3.338392,-3.609338 3.489246,-3.482352 0.150854,0.126987 -2.959435,3.878056 -2.836253,4.032032 0.123181,0.153977 4.465506,-2.057046 4.556281,-1.881996 0.09078,0.17505 -4.218228,2.450329 -4.163348,2.639724 0.05488,0.189396 4.912788,-0.191587 4.929665,0.0049 0.01688,0.196463 -4.834836,0.649562 -4.856612,0.845543 -0.02178,0.195981 4.612142,1.703038 4.552551,1.891005 -0.05959,0.187967 -4.715383,-1.250094 -4.810499,-1.077365 -0.09512,0.17273 3.609338,3.338393 3.482351,3.489247 -0.126986,0.150854 -3.878055,-2.959435 -4.032032,-2.836253 z"
       inkscape:transform-center-x="0.59970638"
       inkscape:transform-center-y="-3.4187856"
       transform="matrix(5.9262602,0,0,5.9262602,-319.52568,-310.59138)" />
  </g>
</svg>
