<svg xmlns="http://www.w3.org/2000/svg" xmlns:xlink="http://www.w3.org/1999/xlink" width="100mm" height="100mm" viewBox="0 0 100 100"><defs><radialGradient xlink:href="#a" id="b" cx="71.635" cy="77.467" fx="71.635" fy="77.467" r="7.031" gradientUnits="userSpaceOnUse"/><linearGradient id="a"><stop offset="0" style="stop-color:#f5f3f6;stop-opacity:1"/><stop offset="1" style="stop-color:#fff;stop-opacity:.05555556"/></linearGradient></defs><path style="opacity:1;vector-effect:none;fill:url(#b);fill-opacity:1;stroke:none;stroke-width:.26499999;stroke-linecap:butt;stroke-linejoin:miter;stroke-miterlimit:4;stroke-dasharray:none;stroke-dashoffset:0;stroke-opacity:1;filter:url(#filter1477)" d="M73.001 79.176c-.154.123 2.057 4.465 1.882 4.556-.175.09-2.45-4.218-2.64-4.164-.189.055.192 4.913-.004 4.93-.197.017-.65-4.835-.846-4.857-.196-.021-1.703 4.613-1.89 4.553-.189-.06 1.25-4.715 1.076-4.81-.172-.096-3.338 3.609-3.489 3.482-.15-.127 2.96-3.878 2.836-4.032-.123-.154-4.465 2.057-4.556 1.882-.09-.175 4.218-2.45 4.163-2.64-.054-.19-4.912.192-4.93-.005-.016-.196 4.836-.65 4.857-.845.022-.196-4.612-1.703-4.552-1.891.06-.188 4.715 1.25 4.81 1.077.096-.173-3.609-3.338-3.482-3.49.127-.15 3.878 2.96 4.032 2.837.154-.123-2.057-4.465-1.882-4.556.175-.091 2.45 4.218 2.64 4.163.19-.055-.192-4.913.005-4.93.196-.016.65 4.835.845 4.857.196.022 1.703-4.612 1.891-4.552.188.06-1.25 4.715-1.077 4.81.173.095 3.338-3.61 3.49-3.482.15.127-2.96 3.878-2.837 4.032.123.154 4.465-2.057 4.556-1.882.09.175-4.218 2.45-4.163 2.64.055.189 4.913-.192 4.93.004.016.197-4.835.65-4.857.846-.022.196 4.612 1.703 4.552 1.89-.06.189-4.715-1.25-4.81-1.076-.095.172 3.61 3.338 3.482 3.489-.127.15-3.878-2.96-4.032-2.836z" transform="translate(-374.526 -409.091) scale(5.92626)"/></svg>